<svg xmlns="http://www.w3.org/2000/svg" width="800" height="200" viewBox="0 0 800 200">
  <defs>
    <linearGradient id="bg" x1="0%" y1="0%" x2="100%" y2="100%">
      <stop offset="0%" style="stop-color:#1a0a2e;stop-opacity:1" />
      <stop offset="100%" style="stop-color:#2d1b69;stop-opacity:1" />
    </linearGradient>
    <linearGradient id="accent" x1="0%" y1="0%" x2="100%" y2="0%">
      <stop offset="0%" style="stop-color:#f59e0b;stop-opacity:1" />
      <stop offset="100%" style="stop-color:#eab308;stop-opacity:1" />
    </linearGradient>
  </defs>
  <rect width="800" height="200" rx="12" fill="url(#bg)"/>
  <rect x="0" y="188" width="800" height="12" rx="0" fill="url(#accent)" opacity="0.8"/>
  <text x="400" y="95" font-size="48" font-weight="bold" fill="#ffffff" font-family="system-ui, -apple-system, sans-serif" text-anchor="middle">SwarmLab</text>
  <text x="400" y="135" font-size="16" fill="#94a3b8" font-family="system-ui, -apple-system, sans-serif" text-anchor="middle">Swarm Intelligence Simulation — PSO, ACO, Firefly &amp; Hybrid Algorithms</text>
  <circle cx="80" cy="45" r="3" fill="#f59e0b" opacity="0.6"/><circle cx="100" cy="60" r="2" fill="#eab308" opacity="0.5"/>
  <circle cx="120" cy="40" r="3" fill="#f59e0b" opacity="0.4"/><circle cx="95" cy="80" r="2" fill="#eab308" opacity="0.6"/>
  <circle cx="135" cy="65" r="2" fill="#f59e0b" opacity="0.5"/>
  <line x1="80" y1="45" x2="100" y2="60" stroke="#f59e0b" stroke-width="1" opacity="0.25"/>
  <line x1="100" y1="60" x2="120" y2="40" stroke="#eab308" stroke-width="1" opacity="0.25"/>
  <line x1="120" y1="40" x2="135" y2="65" stroke="#f59e0b" stroke-width="1" opacity="0.25"/>
  <line x1="95" y1="80" x2="80" y2="45" stroke="#eab308" stroke-width="1" opacity="0.25"/>
  <circle cx="680" cy="50" r="2" fill="#eab308" opacity="0.6"/><circle cx="700" cy="70" r="3" fill="#f59e0b" opacity="0.5"/>
  <circle cx="725" cy="42" r="2" fill="#eab308" opacity="0.4"/><circle cx="710" cy="85" r="3" fill="#f59e0b" opacity="0.5"/>
  <circle cx="745" cy="60" r="2" fill="#eab308" opacity="0.6"/>
  <line x1="680" y1="50" x2="700" y2="70" stroke="#f59e0b" stroke-width="1" opacity="0.25"/>
  <line x1="700" y1="70" x2="725" y2="42" stroke="#eab308" stroke-width="1" opacity="0.25"/>
  <line x1="725" y1="42" x2="745" y2="60" stroke="#f59e0b" stroke-width="1" opacity="0.25"/>
</svg>
